HIERARCHY
ROOT SpineBase
{
  OFFSET 0.000000 0.000000 0.000000
  CHANNELS 6 Xposition Yposition Zposition Zrotation Xrotation Yrotation
  JOINT SpineMid
  {
    OFFSET 0.000000 37.983188 0.000000
    CHANNELS 3 Zrotation Xrotation Yrotation
    JOINT SpineShoulder
    {
      OFFSET 0.014973 27.877190 -0.872152
      CHANNELS 3 Zrotation Xrotation Yrotation
      JOINT Neck
      {
        OFFSET 0.009881 9.135800 -0.653539
        CHANNELS 3 Zrotation Xrotation Yrotation
        JOINT Head
        {
          OFFSET -8.323576 9.740896 4.309351
          CHANNELS 3 Zrotation Xrotation Yrotation
          End Site
          {
            OFFSET 0 0 0
          }
        }
      }
      JOINT ShoulderLeft
      {
        OFFSET -7.086638 -8.019575 -3.385315
        CHANNELS 3 Zrotation Xrotation Yrotation
        JOINT ElbowLeft
        {
          OFFSET -11.222568 -16.133752 3.597045
          CHANNELS 3 Zrotation Xrotation Yrotation
          JOINT WristLeft
          {
            OFFSET 18.551551 -9.343914 -7.770112
            CHANNELS 3 Zrotation Xrotation Yrotation
            JOINT HandLeft
            {
              OFFSET 5.909532 -5.628058 -4.210895
              CHANNELS 3 Zrotation Xrotation Yrotation
              JOINT HandTipLeft
              {
                OFFSET 5.551104 -3.993065 1.246495
                CHANNELS 3 Zrotation Xrotation Yrotation
                End Site
                {
                  OFFSET 0 0 0
                }
              }
              JOINT ThumbLeft
              {
                OFFSET 5.917561 2.497443 -0.183547
                CHANNELS 3 Zrotation Xrotation Yrotation
                End Site
                {
                  OFFSET 0 0 0
                }
              }
            }
          }
        }
      }
      JOINT ShoulderRight
      {
        OFFSET 5.737190 -4.596837 -13.324784
        CHANNELS 3 Zrotation Xrotation Yrotation
        JOINT ElbowRight
        {
          OFFSET 0.984095 -23.196092 -7.117417
          CHANNELS 3 Zrotation Xrotation Yrotation
          JOINT WristRight
          {
            OFFSET -22.458776 -1.104821 15.293025
            CHANNELS 3 Zrotation Xrotation Yrotation
            JOINT HandRight
            {
              OFFSET 0.205922 2.200869 0.599979
              CHANNELS 3 Zrotation Xrotation Yrotation
              JOINT HandTipRight
              {
                OFFSET -3.354765 2.318544 0.888996
                CHANNELS 3 Zrotation Xrotation Yrotation
                End Site
                {
                  OFFSET 0 0 0
                }
              }
              JOINT ThumbRight
              {
                OFFSET 1.038128 4.434746 -0.903748
                CHANNELS 3 Zrotation Xrotation Yrotation
                End Site
                {
                  OFFSET 0 0 0
                }
              }
            }
          }
        }
      }
    }
  }
  JOINT HipLeft
  {
    OFFSET -5.081916 -1.137836 0.033851
    CHANNELS 3 Zrotation Xrotation Yrotation
    JOINT KneeLeft
    {
      OFFSET 3.506356 -35.344974 -10.861742
      CHANNELS 3 Zrotation Xrotation Yrotation
      JOINT AnkleLeft
      {
        OFFSET 4.731407 -30.020745 24.834860
        CHANNELS 3 Zrotation Xrotation Yrotation
        JOINT FootLeft
        {
          OFFSET -5.436602 -2.885592 -10.645851
          CHANNELS 3 Zrotation Xrotation Yrotation
          End Site
          {
            OFFSET 0 0 0
          }
        }
      }
    }
  }
  JOINT HipRight
  {
    OFFSET 5.731803 2.839147 -8.340689
    CHANNELS 3 Zrotation Xrotation Yrotation
    JOINT KneeRight
    {
      OFFSET 2.131157 -35.679624 -0.567256
      CHANNELS 3 Zrotation Xrotation Yrotation
      JOINT AnkleRight
      {
        OFFSET 5.247343 -35.699669 7.614378
        CHANNELS 3 Zrotation Xrotation Yrotation
        JOINT FootRight
        {
          OFFSET -2.349339 -6.375832 -3.300993
          CHANNELS 3 Zrotation Xrotation Yrotation
          End Site
          {
            OFFSET 0 0 0
          }
        }
      }
    }
  }
}
MOTION
Frames: 5
Frame Time: 0.033333
-36.308763 65.631818 352.614262 21.992900 -2.664452 8.523537 -1.197218 0.565829 -7.389463 0.161463 0.955107 0.674193 -0.564123 -4.805157 -13.465939 0.000000 0.000000 0.000000 1.426589 7.134408 -2.068295 15.902592 30.158734 15.485703 -56.092466 -50.508113 -83.309677 -34.101620 58.520037 91.467289 0.000000 0.000000 0.000000 0.000000 0.000000 0.000000 39.461221 -17.526332 -13.628272 -50.375795 7.266984 -31.557756 93.299444 22.901982 3.127407 -50.166015 -1.726155 -2.374690 0.000000 0.000000 0.000000 0.000000 0.000000 0.000000 -41.423656 -21.987931 -7.765667 33.333696 43.563256 -4.526282 -5.619318 -18.650055 -36.958663 0.000000 0.000000 0.000000 -4.477799 44.258100 -12.196832 -3.295877 -21.763413 1.944899 -30.732411 11.398846 -3.503508 0.000000 0.000000 0.000000
-36.458335 65.575742 355.572027 23.194865 -4.060004 10.194303 -1.242000 0.010551 -8.579828 0.532068 1.505044 0.610707 2.841211 -4.332163 -15.844001 0.000000 0.000000 0.000000 13.223665 5.936648 2.887062 21.279219 35.210596 1.159414 -73.590378 -62.243129 -105.316103 -69.296037 55.953766 123.488889 0.000000 0.000000 0.000000 0.000000 0.000000 0.000000 41.500901 -19.623432 -14.223716 -54.615625 8.185446 -30.360399 99.311190 24.345897 -4.403959 -54.965450 -10.491137 -2.115544 0.000000 0.000000 0.000000 0.000000 0.000000 0.000000 -43.174024 -19.381662 -7.619225 38.121175 47.519141 -5.260725 -8.827078 -29.122403 -40.533460 0.000000 0.000000 0.000000 -3.069472 46.194753 -14.751621 -3.129689 -22.208626 2.294030 -25.402512 12.690223 -6.461882 0.000000 0.000000 0.000000
-37.043448 66.186264 358.068914 23.913922 -5.340068 15.899712 -1.310046 -0.465569 -13.830001 0.226916 1.463277 0.630833 6.566176 -3.114878 -17.961099 0.000000 0.000000 0.000000 21.617592 6.300494 5.881847 24.518757 39.112295 -7.190171 -98.280970 -66.887800 -134.649721 -95.167720 63.515596 148.955194 0.000000 0.000000 0.000000 0.000000 0.000000 0.000000 42.512757 -18.821882 -16.198493 -55.574698 7.986167 -29.571265 99.566500 25.963675 -8.733411 -55.275072 -19.846829 -2.954110 0.000000 0.000000 0.000000 0.000000 0.000000 0.000000 -44.195999 -12.932472 -10.350890 40.293968 50.006961 -4.869946 -12.444350 -41.601925 -41.844632 0.000000 0.000000 0.000000 2.959313 45.764411 -22.910544 -2.568343 -22.140252 3.039836 -17.502284 16.043990 -11.002184 0.000000 0.000000 0.000000
-37.686327 66.346895 360.087311 24.323099 -6.135531 15.923942 -1.208501 -0.894650 -13.564020 0.034171 1.493398 0.640452 10.621425 -2.411801 -19.860199 0.000000 0.000000 0.000000 29.005638 6.221770 8.963964 25.454132 46.404608 -11.628451 -129.901624 -67.478246 -176.824708 -164.067508 73.163069 -142.564859 0.000000 0.000000 0.000000 0.000000 0.000000 0.000000 41.607790 -16.947905 -17.806790 -54.288975 7.481980 -29.153585 98.643393 25.428467 -8.353978 -56.101995 -20.823163 -2.676042 0.000000 0.000000 0.000000 0.000000 0.000000 0.000000 -44.535697 -12.974222 -9.869148 43.959679 54.534616 -6.474213 -16.606771 -48.389726 -43.905926 0.000000 0.000000 0.000000 3.538462 45.515276 -23.134910 -1.399362 -23.571739 4.120131 -17.088641 20.266566 -12.409137 0.000000 0.000000 0.000000
-38.299164 66.211729 360.968571 24.084203 -6.395270 15.046960 -0.968164 -1.202948 -12.612685 -0.131710 1.407084 0.661336 14.729391 -1.460973 -21.016922 0.000000 0.000000 0.000000 38.079963 5.630369 13.716447 19.949599 60.935637 -10.706494 -158.394713 -31.052103 124.150055 170.742565 75.869136 -142.640190 0.000000 0.000000 0.000000 0.000000 0.000000 0.000000 39.363795 -15.422023 -18.203631 -51.514292 8.138100 -28.386404 96.325756 23.136106 -3.917095 -56.878955 -16.826535 -2.429888 0.000000 0.000000 0.000000 0.000000 0.000000 0.000000 -44.662501 -14.809284 -9.458426 47.893033 57.905145 -8.983464 -19.518391 -49.905990 -44.235113 0.000000 0.000000 0.000000 1.408663 43.395397 -20.773549 2.399179 -25.252162 6.372532 -12.824044 21.546480 -15.471627 0.000000 0.000000 0.000000
